# xmcd
#
# Track frame offsets: 
#        187
#        13775
#        29605
#        46415
#        66197
#        88017
#        104502
#        118972
#        135175
#        151110
#
# Disc length: 2337 seconds
#
# Revision: 6
# Processed by: cddbd v1.5.2PL0 Copyright (c) Steve Scherf et al.
# Submitted via: ExactAudioCopy v0.99pb4
#
DISCID=81091f0a
DTITLE=The Judds - The Judds Greatest Hits Volume Two
DYEAR=1991
DGENRE=Country
TTITLE0=Let Me Tell You About Love
TTITLE1=John Deere Tractor
TTITLE2=Turn It Loose
TTITLE3=Young Love (Strong Love)
TTITLE4=Born To Be Blue
TTITLE5=I Know Where I'm Going
TTITLE6=Had a Dream (For The Heart)
TTITLE7=Guardian Angels
TTITLE8=Maybe Your Baby's Got The Blues
TTITLE9=Love Can Build A Bridge
EXTD=
EXTT0=
EXTT1=
EXTT2=
EXTT3=
EXTT4=
EXTT5=
EXTT6=
EXTT7=
EXTT8=
EXTT9=
PLAYORDER=
